<?xml version="1.0" encoding="utf-8"?>
<!-- Generator: Adobe Illustrator 27.5.0, SVG Export Plug-In . SVG Version: 6.00 Build 0)  -->
<svg version="1.1"
	 id="svg4" xmlns:inkscape="http://www.inkscape.org/namespaces/inkscape" xmlns:sodipodi="http://sodipodi.sourceforge.net/DTD/sodipodi-0.dtd" xmlns:svg="http://www.w3.org/2000/svg" xmlns:rdf="http://www.w3.org/1999/02/22-rdf-syntax-ns#" xmlns:cc="http://creativecommons.org/ns#" xmlns:dc="http://purl.org/dc/elements/1.1/"
	 xmlns="http://www.w3.org/2000/svg" xmlns:xlink="http://www.w3.org/1999/xlink" x="0px" y="0px" viewBox="0 0 700 700"
	 style="enable-background:new 0 0 700 700;" xml:space="preserve">
<style type="text/css">
	.st0{fill:#572B88;}
	.st1{font-family:'Arial-Black';}
	.st2{font-size:124.2834px;}
	.st3{font-size:98px;}
</style>
<sodipodi:namedview  bordercolor="#666666" borderopacity="1" gridtolerance="10" guidetolerance="10" id="namedview6" inkscape:current-layer="svg4" inkscape:cx="67.287382" inkscape:cy="124.09794" inkscape:pageopacity="0" inkscape:pageshadow="2" inkscape:window-height="837" inkscape:window-maximized="1" inkscape:window-width="1600" inkscape:window-x="-8" inkscape:window-y="-8" inkscape:zoom="0.44926305" objecttolerance="10" pagecolor="#ffffff" showgrid="false">
	</sodipodi:namedview>
<path id="path2-2" inkscape:connector-curvature="0" inkscape:export-filename="C:\Users\suitedoalex\svg-nyu-logo-5.png" inkscape:export-xdpi="225.97058" inkscape:export-ydpi="225.97058" sodipodi:nodetypes="ccccscccccscccccccccccccsccccccccccccccccccc" class="st0" d="
	M322.2,204.3c-30.7-17.8-27.8-44.6-14.9-63.4v-2c-1-5-5.9-15.9-7.9-18.8c-1-1-1-1-1,0c0,5-5.9,17.8-14.9,32.7
	C273.7,169.6,273.7,204.3,322.2,204.3C322.2,205.3,322.2,204.3,322.2,204.3 M330.2,203.3c-17.8-38.7,17.8-64.4,23.8-69.4
	c1-1,1-1,1-2c0-11.9-6.9-31.7-8.9-34.7h-1c-3,11.9-19.8,29.7-22.8,33.7C293.5,163.6,300.4,184.4,330.2,203.3
	C330.2,204.3,330.2,203.3,330.2,203.3 M336.1,201.3c8.9-41.6,42.6-42.6,45.6-50.6c5-11.9-4-33.7-5.9-36.7h-1
	c-5,9.9-11.9,19.8-17.8,23.8C350,144.8,320.3,166.6,336.1,201.3C335.1,202.3,336.1,202.3,336.1,201.3 M342.1,205.3
	c54.5,2,58.5-47.6,58.5-66.4c0-1-1-1-1,0c-2,4-8.9,17.8-28.7,25.8C354,172.5,343.1,189.4,342.1,205.3
	C341.1,205.3,342.1,205.3,342.1,205.3 M354,211.2h-42.6v12.9H354V211.2z M329.2,312.3c0,2,5,3,5.9,0L345,230h-24.8L329.2,312.3z
	 M487.8,347H190.4V49.6h297.4L487.8,347z"/>
<path id="path2-2-7" inkscape:connector-curvature="0" inkscape:export-filename="C:\Users\suitedoalex\svg-nyu-logo-5.png" inkscape:export-xdpi="225.97058" inkscape:export-ydpi="225.97058" sodipodi:nodetypes="cccccccccccccccccccccccccsssccssc" class="st0" d="
	M190.4,375h20.7l47.3,62.1V375h21.9v100.5h-18.9l-49.1-63.9v63.9h-21.9V375z M329.9,435.9l-39-60.9h26l24.2,40.2l24.2-40.2h25.4
	l-38.4,60.3v40.2h-21.9v-39.6L329.9,435.9z M400.3,432.4V375h21.9v56.8c0,16.6,8.3,24.8,21.9,24.8c13.6,0,21.9-8.3,21.9-24.2V375
	h21.9v56.8c0,30.7-17.1,45.5-44.3,45.5C416.3,477.3,400.3,462,400.3,432.4"/>
<path id="path2-2-7_00000031918298856205389420000007432929975569356160_" inkscape:connector-curvature="0" inkscape:export-filename="C:\Users\suitedoalex\svg-nyu-logo-5.png" inkscape:export-xdpi="225.97058" inkscape:export-ydpi="225.97058" sodipodi:nodetypes="cccccccccccccccccccccccccsssccssc" class="st0" d="
	M190.4,375h20.7l47.3,62.1V375h21.9v100.5h-18.9l-49.1-63.9v63.9h-21.9V375z M329.9,435.9l-39-60.9h26l24.2,40.2l24.2-40.2h25.4
	l-38.4,60.3v40.2h-21.9v-39.6L329.9,435.9z M400.3,432.4V375h21.9v56.8c0,16.6,8.3,24.8,21.9,24.8c13.6,0,21.9-8.3,21.9-24.2V375
	h21.9v56.8c0,30.7-17.1,45.5-44.3,45.5C416.3,477.3,400.3,462,400.3,432.4"/>
<path id="path2-2-7_00000139285578792615551690000009999140289773247900_" inkscape:connector-curvature="0" inkscape:export-filename="C:\Users\suitedoalex\svg-nyu-logo-5.png" inkscape:export-xdpi="225.97058" inkscape:export-ydpi="225.97058" sodipodi:nodetypes="cccccccccccccccccccccccccsssccssc" class="st0" d="
	M190.4,375h20.7l47.3,62.1V375h21.9v100.5h-18.9l-49.1-63.9v63.9h-21.9V375z M329.9,435.9l-39-60.9h26l24.2,40.2l24.2-40.2h25.4
	l-38.4,60.3v40.2h-21.9v-39.6L329.9,435.9z M400.3,432.4V375h21.9v56.8c0,16.6,8.3,24.8,21.9,24.8c13.6,0,21.9-8.3,21.9-24.2V375
	h21.9v56.8c0,30.7-17.1,45.5-44.3,45.5C416.3,477.3,400.3,462,400.3,432.4"/>
<text transform="matrix(1.0019 0 0 1 190.4041 667.8867)" class="st0 st1 st2">ZOO</text>
<text transform="matrix(1 0 0 1 311.3402 554)" class="st1 st3">x</text>
</svg>
